<svg width="46" height="46" viewBox="0 0 46 46" fill="none" xmlns="http://www.w3.org/2000/svg">
<path d="M30.1144 3.76428H15.0572V5.27H30.1144V3.76428Z" fill="white"/>
<path d="M37.2666 28.2322C37.2666 26.7794 36.0843 25.5972 34.6316 25.5972H33.1259V15.0572H31.6202V25.5972H29.738C28.2852 25.5972 27.103 26.7795 27.103 28.2322C27.103 28.9699 27.4096 29.6356 27.8997 30.1144C27.4096 30.5932 27.103 31.2589 27.103 31.9965C27.103 32.5041 27.254 32.9743 27.5038 33.3769C26.6032 33.7964 25.9737 34.7038 25.9737 35.7609C25.9737 36.1665 26.0735 36.5466 26.238 36.8901H20.3272C20.3272 34.5882 19.1737 32.5509 17.4143 31.326C19.1156 30.6775 20.3272 29.0292 20.3272 27.103C20.3272 26.6872 19.9905 26.3501 19.5744 26.3501H13.5515V18.8215H12.0458V26.3501C10.8004 26.3501 9.7872 27.3633 9.7872 28.6087V45.1716H11.2929V28.6087C11.2929 28.1937 11.6304 27.8558 12.0458 27.8558H18.7259C18.3914 29.1531 17.2106 30.1144 15.8101 30.1144H13.5515C13.1354 30.1144 12.7986 30.4515 12.7986 30.8673C12.7986 31.283 13.1354 31.6201 13.5515 31.6201C16.4571 31.6201 18.8215 33.9842 18.8215 36.8901V37.643C18.8215 38.0588 19.1582 38.3959 19.5744 38.3959H23.9795C23.815 38.7395 23.7151 39.1195 23.7151 39.5252C23.7151 40.978 24.8974 42.1602 26.3501 42.1602V45.1716H27.8559V42.1602H30.8673H31.2437C32.6966 42.1602 33.8787 40.9779 33.8787 39.5252C33.8787 39.1151 33.7764 38.7315 33.6086 38.3851C35.0112 38.3279 36.1373 37.1773 36.1373 35.7609C36.1373 35.2533 35.9863 34.7831 35.7365 34.3805C36.6371 33.961 37.2666 33.0536 37.2666 31.9965C37.2666 31.2589 36.96 30.5932 36.4699 30.1144C36.96 29.6356 37.2666 28.9699 37.2666 28.2322ZM31.2437 40.6544H30.8673H27.103H26.3501C25.7274 40.6544 25.2208 40.1479 25.2208 39.5252C25.2208 38.9024 25.7274 38.3959 26.3501 38.3959H28.6087H31.2437C31.8664 38.3959 32.373 38.9024 32.373 39.5252C32.373 40.1479 31.8664 40.6544 31.2437 40.6544ZM33.5023 36.8901H31.2437H28.6087C27.986 36.8901 27.4794 36.3836 27.4794 35.7609C27.4794 35.1381 27.986 34.6316 28.6087 34.6316H29.738H33.5023C34.125 34.6316 34.6316 35.1381 34.6316 35.7609C34.6316 36.3836 34.125 36.8901 33.5023 36.8901ZM34.6316 33.1258H33.5023H29.738C29.1153 33.1258 28.6087 32.6193 28.6087 31.9965C28.6087 31.3738 29.1153 30.8673 29.738 30.8673H34.6316C35.2543 30.8673 35.7609 31.3738 35.7609 31.9965C35.7609 32.6193 35.2543 33.1258 34.6316 33.1258ZM34.6316 29.3615H29.738C29.1153 29.3615 28.6087 28.855 28.6087 28.2322C28.6087 27.6095 29.1153 27.103 29.738 27.103H34.6316C35.2543 27.103 35.7609 27.6095 35.7609 28.2322C35.7609 28.855 35.2543 29.3615 34.6316 29.3615Z" fill="white"/>
<path d="M11.2908 9.5828C11.2753 9.36663 11.1679 9.16741 10.9952 9.0365L10.2114 8.4424C10.024 7.49333 9.19093 6.77576 8.19471 6.77576C7.0706 6.77576 6.15371 7.68964 6.13903 8.81855C5.53758 8.71343 4.96268 8.48259 4.44801 8.13589L4.18554 7.95869C3.95545 7.80322 3.65694 7.78628 3.41066 7.91785C3.16513 8.04837 3.01146 8.30425 3.01146 8.58253V9.20016C3.01146 10.1074 3.28493 10.9728 3.79227 11.6996L3.22913 12.2694C3.01522 12.4852 2.95264 12.8083 3.06961 13.0888C3.1864 13.3688 3.46063 13.5515 3.76432 13.5515H7.41249C8.86749 13.5515 10.0703 12.4424 10.232 11.0191L11.0753 10.1659C11.2275 10.0118 11.3062 9.79934 11.2908 9.5828ZM8.96225 10.1615C8.8226 10.3022 8.74458 10.4927 8.74458 10.6908C8.74458 11.4378 8.14681 12.0458 7.4124 12.0458H5.49721C5.61635 11.7716 5.56488 11.4407 5.34212 11.2154C4.99073 10.8596 4.73927 10.4118 4.61204 9.92911C5.33036 10.232 6.10232 10.3894 6.89198 10.3894C7.30812 10.3894 7.64484 10.0523 7.64484 9.63653V8.84612C7.64484 8.53472 7.89187 8.28148 8.19481 8.28148C8.49774 8.28148 8.74477 8.53472 8.74477 8.84612C8.74477 9.08177 8.85506 9.30377 9.04253 9.44606L9.40136 9.71775L8.96225 10.1615Z" fill="white"/>
<path d="M24.8444 12.7986V11.2929H22.5858C22.1697 11.2929 21.833 11.63 21.833 12.0458V14.3043H20.3272V15.8101H21.833V18.8215H23.3387V15.8101H24.8444V14.3043H23.3387V12.7986H24.8444Z" fill="white"/>
<path d="M27.103 8.28149H18.0686C16.8232 8.28149 15.8101 9.29466 15.8101 10.5401V19.5744C15.8101 20.8198 16.8232 21.833 18.0686 21.833H27.103C28.3484 21.833 29.3615 20.8198 29.3615 19.5744V10.5401C29.3615 9.29466 28.3484 8.28149 27.103 8.28149ZM27.8558 19.5744C27.8558 19.9894 27.5184 20.3273 27.103 20.3273H18.0686C17.6532 20.3273 17.3158 19.9894 17.3158 19.5744V10.5401C17.3158 10.1251 17.6532 9.78721 18.0686 9.78721H27.103C27.5184 9.78721 27.8558 10.1251 27.8558 10.5401V19.5744Z" fill="white"/>
<path d="M11.2929 3.76428H2.25858C1.01316 3.76428 0 4.77744 0 6.02286V15.0572C0 16.3026 1.01316 17.3158 2.25858 17.3158H11.2929C12.5383 17.3158 13.5515 16.3026 13.5515 15.0572V6.02286C13.5515 4.77744 12.5383 3.76428 11.2929 3.76428ZM12.0458 15.0572C12.0458 15.4722 11.7083 15.81 11.2929 15.81H2.25858C1.84319 15.81 1.50572 15.4722 1.50572 15.0572V6.02286C1.50572 5.60785 1.84319 5.27 2.25858 5.27H11.2929C11.7083 5.27 12.0458 5.60785 12.0458 6.02286V15.0572Z" fill="white"/>
<path d="M42.9131 0H33.8787C32.6333 0 31.6201 1.01316 31.6201 2.25858V11.2929C31.6201 12.5383 32.6333 13.5515 33.8787 13.5515H42.9131C44.1585 13.5515 45.1716 12.5383 45.1716 11.2929V2.25858C45.1716 1.01316 44.1585 0 42.9131 0ZM43.6659 11.2929C43.6659 11.7079 43.3284 12.0458 42.9131 12.0458H33.8787C33.4633 12.0458 33.1259 11.7079 33.1259 11.2929V7.5286H34.7077C35.0575 9.24456 36.5782 10.54 38.3959 10.54C40.2136 10.54 41.7343 9.24456 42.0841 7.5286H43.6659V11.2929ZM36.1373 6.77574C36.1373 5.53032 37.1505 4.51716 38.3959 4.51716C39.6413 4.51716 40.6545 5.53032 40.6545 6.77574C40.6545 8.02116 39.6413 9.03432 38.3959 9.03432C37.1505 9.03432 36.1373 8.02116 36.1373 6.77574ZM43.6659 6.02288H42.0841C41.7343 4.30693 40.2136 3.01144 38.3959 3.01144C36.5782 3.01144 35.0575 4.30693 34.7077 6.02288H33.1259V2.25858C33.1259 1.84357 33.4633 1.50572 33.8787 1.50572H42.9131C43.3284 1.50572 43.6659 1.84357 43.6659 2.25858V6.02288Z" fill="white"/>
<path d="M23.3387 30.8673H21.8329V32.373H23.3387V30.8673Z" fill="white"/>
</svg>
