<svg width="45" height="46" viewBox="0 0 45 46" fill="none" xmlns="http://www.w3.org/2000/svg">
<path d="M25.5002 28.5025C25.5002 32.6447 28.858 36.0025 33.0001 36.0025C37.1419 36.0025 40.4998 32.6447 40.4998 28.5025C40.4998 24.3607 37.1419 21.0029 33.0001 21.0029C28.8598 21.0074 25.5047 24.3625 25.5002 28.5025ZM33.0001 22.5027C36.3138 22.5027 39 25.1889 39 28.5025C39 31.8162 36.3138 34.5024 33.0001 34.5024C29.6864 34.5024 27.0003 31.8162 27.0003 28.5025C27.0039 25.1907 29.688 22.5063 33.0001 22.5027Z" fill="white"/>
<path d="M28.7148 43.5025H37.2865V45.0023H28.7148V43.5025Z" fill="white"/>
<path d="M25.5002 40.5023H40.5001V42.0024H25.5002V40.5023Z" fill="white"/>
<path d="M9.00058 40.5023H10.5007V42.0024H9.00058V40.5023Z" fill="white"/>
<path d="M4.50069 42.0024H6.0005V43.5025H4.50069V42.0024Z" fill="white"/>
<path d="M9.07558 36.2821C12.9917 29.4617 15.4488 21.9021 16.2911 14.0826L23.2662 21.0162C23.4057 21.1551 23.5941 21.2334 23.7911 21.2344C23.8317 21.2347 23.8725 21.2313 23.9124 21.2247C24.1503 21.1859 24.3548 21.0353 24.4622 20.8198C25.8761 17.9978 25.3224 14.5873 23.0883 12.3577L22.475 11.7441H27.7502C28.1644 11.7444 28.5005 11.4089 28.5005 10.9947C28.5008 10.9136 28.4875 10.8331 28.4621 10.7565C27.4661 7.76114 24.6631 5.74122 21.5065 5.74425H20.5316L24.277 1.97701C24.5693 1.68352 24.5681 1.2088 24.2746 0.916523C24.2177 0.859944 24.1524 0.812744 24.0807 0.777041C21.2574 -0.638357 17.8451 -0.084966 15.614 2.15038L14.8978 2.86655C14.6643 3.10165 14.4473 3.35217 14.2476 3.61661C14.0503 3.35217 13.8349 3.10165 13.6032 2.86655L12.887 2.15038C10.6577 -0.0834532 7.24718 -0.636844 4.42576 0.777041C4.05512 0.962211 3.90475 1.41273 4.08992 1.78307C4.12562 1.85478 4.17282 1.92013 4.2294 1.97701L7.97909 5.74425H6.99454C3.83788 5.74122 1.03462 7.76114 0.0388789 10.7565C-0.0924343 11.1493 0.119664 11.5741 0.512695 11.7054C0.589244 11.7311 0.669726 11.7441 0.750814 11.7441H6.02089L5.40759 12.3577C3.17345 14.5873 2.61976 17.9978 4.03334 20.8198C4.14105 21.0353 4.34558 21.1859 4.5831 21.2247C4.62334 21.2313 4.66388 21.2347 4.70473 21.2344C4.90291 21.2344 5.09292 21.156 5.23331 21.0162L11.7285 14.5595C10.9242 21.7463 8.21751 28.5885 3.8872 34.3802C2.87905 34.1154 1.85699 33.907 0.82585 33.7563L0.357177 33.7091L0.207105 35.2023L0.644311 35.2449C1.39437 35.3523 2.13959 35.5039 2.88087 35.6755C2.7308 35.8637 2.58073 36.0549 2.42551 36.2403L3.57586 37.2025C9.33942 30.35 12.7753 21.8428 13.3874 12.9096L14.2506 12.0518L14.8969 12.6945C14.1084 22.2479 10.8292 31.4281 5.38641 39.3189L6.61482 40.1785C7.20452 39.3368 7.76699 38.4633 8.31221 37.5731C11.8204 39.2512 14.9181 41.678 17.387 44.6828L18.5471 43.7325C17.0872 41.9576 15.4146 40.3688 13.5665 39.0025H45V37.5023H11.3445C10.6093 37.0585 9.85045 36.6564 9.07558 36.2821ZM23.5158 19.1479L15.5916 11.2694C17.6185 10.6643 19.8139 11.2134 21.317 12.7017L22.0332 13.4182C23.5336 14.9159 24.1012 17.1104 23.5158 19.1479ZM26.6059 10.2443H20.396C18.9498 9.55596 17.318 9.3611 15.7505 9.68999C16.8418 8.15539 18.6082 7.24406 20.4913 7.24436H21.5037C23.6238 7.24103 25.5781 8.39017 26.6059 10.2443ZM15.9559 3.92704L16.6724 3.21087C18.1713 1.71015 20.3667 1.14224 22.4051 1.728L17.9592 6.20021C16.5163 6.73121 15.2776 7.70366 14.4186 8.97897C14.0697 7.14421 14.6452 5.255 15.9583 3.92704H15.9559ZM11.8244 3.21087L12.5406 3.92704C12.8746 4.26803 13.1644 4.64987 13.4032 5.06317C13.0634 5.85317 12.8694 6.69763 12.8301 7.55631C12.1569 6.96812 11.3814 6.50883 10.5427 6.20021L6.09592 1.728C8.1337 1.14254 10.3285 1.71045 11.8265 3.21087H11.8244ZM6.99212 7.24436H8.0048C9.88918 7.24255 11.658 8.15357 12.7505 9.68909C11.1839 9.36141 9.55272 9.55626 8.10737 10.2443H1.89511C2.92262 8.39108 4.87538 7.24224 6.99454 7.24436H6.99212ZM4.98521 19.1479C4.39974 17.1104 4.96766 14.9159 6.46808 13.4182L7.18425 12.7017C8.26319 11.6255 9.7264 11.0231 11.2507 11.0279C11.8132 11.0282 12.3726 11.1084 12.9127 11.2664L4.98521 19.1479Z" fill="white"/>
</svg>
