<svg width="37" height="46" viewBox="0 0 37 46" fill="none" xmlns="http://www.w3.org/2000/svg">
<path d="M32.5236 27.63L24.8444 25.0703V22.7364C25.8231 21.5318 26.5007 20.1767 26.8771 18.6709L29.211 16.9394C29.8133 16.4876 30.1144 15.8101 30.1144 15.1325V14.3796C30.1144 13.0998 29.1357 12.1211 27.8558 12.1211H27.103V7.67918L28.0817 4.14073C28.4581 2.93616 27.7053 1.65629 26.5007 1.35515C26.4254 1.35515 26.3501 1.27986 26.1995 1.27986L18.0687 0L9.86247 1.27986C8.6579 1.50572 7.75446 2.63501 7.98032 3.83959C7.98032 3.91487 7.98032 3.99016 8.05561 4.14073L9.03433 7.67918V12.0458H8.28147C7.0016 12.0458 6.02288 13.0245 6.02288 14.3043V15.0572C6.02288 15.7348 6.32403 16.4124 6.92632 16.8641L9.26018 18.5957C9.63661 20.1014 10.3142 21.5318 11.2929 22.6611V24.995L3.61373 27.5547C1.43043 28.3076 0 30.265 0 32.5236V45.1716H36.1373V32.5989C36.1373 30.3403 34.7069 28.3076 32.5236 27.63ZM12.7986 24.1668C12.8739 24.2421 12.9492 24.3174 13.0998 24.3927L13.7021 24.8444C14.7561 25.5973 16.0359 26.1243 17.3911 26.2748V29.738L12.8739 27.4794V24.1668H12.7986ZM18.8215 26.1995C20.1767 26.049 21.3812 25.5973 22.5105 24.7691L23.1128 24.3174C23.1881 24.2421 23.2634 24.1668 23.414 24.0915V27.3288L18.8968 29.5874L18.8215 26.1995ZM25.5973 8.28146V9.78719H10.54V8.28146H25.5973ZM24.8444 11.2929C21.5318 15.0572 15.7348 15.3584 12.0458 11.9705C11.8199 11.7446 11.5941 11.5188 11.3682 11.2929H24.8444ZM27.8558 13.5515C28.3076 13.5515 28.6087 13.8526 28.6087 14.3043V15.0572C28.6087 15.2831 28.5334 15.5089 28.3076 15.6595L27.103 16.5629V16.4876V13.5515H27.8558ZM9.56133 3.08673C9.7119 2.93616 9.86247 2.78558 10.0883 2.78558L18.0687 1.50572L26.049 2.7103C26.4254 2.78558 26.7265 3.16201 26.6513 3.53844V3.61373L25.7478 6.77574H10.3895L9.48604 3.68902C9.41076 3.46316 9.41076 3.2373 9.56133 3.08673ZM7.82975 15.6595C7.60389 15.5089 7.5286 15.2831 7.5286 15.0572V14.3043C7.5286 13.8526 7.82975 13.5515 8.28147 13.5515H9.03433V16.4876V16.5629L7.82975 15.6595ZM10.54 12.6481C14.6055 16.7888 21.306 16.8641 25.4467 12.7986C25.522 12.7233 25.522 12.7233 25.5973 12.6481V16.4876C25.5973 19.1227 24.3174 21.6071 22.2094 23.1881L21.6071 23.6398C19.4991 25.1455 16.6382 25.1455 14.5302 23.6398L13.9279 23.1881C11.8199 21.6071 10.54 19.1227 10.54 16.4876V12.6481ZM1.50572 32.5989C1.50572 30.9426 2.55973 29.5121 4.06545 29.0604L11.2929 26.6513V28.3076L16.5629 30.9426L15.0572 31.9213V43.6659H9.03433V36.8902H7.5286V43.6659H1.50572V32.5989ZM34.6316 43.6659H28.6087V36.8902H27.103V43.6659H16.5629V32.7494L18.4451 31.4696L24.8444 28.3076V26.6513L32.0719 29.0604C33.5776 29.5874 34.6316 31.0178 34.6316 32.5989V43.6659Z" fill="white"/>
<path d="M18.0687 37.643H19.5744V39.1487H18.0687V37.643Z" fill="white"/>
<path d="M18.0687 40.6545H19.5744V42.1602H18.0687V40.6545Z" fill="white"/>
<path d="M18.0687 34.6316H19.5744V36.1373H18.0687V34.6316Z" fill="white"/>
<path d="M21.0801 33.8787H27.103V35.3844H21.0801V33.8787Z" fill="white"/>
</svg>
