<svg width="45" height="33" viewBox="0 0 45 33" fill="none" xmlns="http://www.w3.org/2000/svg">
<path d="M5.36442 19.1682C4.97702 19.35 4.80611 19.8075 4.97875 20.1986L6.74825 23.9972C6.83519 24.1864 6.99379 24.3336 7.18884 24.4063C7.2743 24.4373 7.36493 24.4533 7.45606 24.4533C7.57008 24.4543 7.68263 24.4299 7.78631 24.3829L21.1558 18.1383L19.9448 30.7997C19.9214 31.0489 20.0175 31.2939 20.2039 31.4604C20.79 31.9456 21.5205 32.2219 22.2805 32.2468C22.4901 32.2465 22.6984 32.2202 22.9016 32.1685C23.987 31.8853 24.8285 30.9181 25.4026 29.2663L30.6638 13.6873L41.0838 8.82675C44.151 7.39563 45.7316 4.49374 44.6701 2.22872C44.0677 1.04486 42.9139 0.239534 41.5951 0.0816695C40.1297 -0.139488 38.6321 0.091028 37.3012 0.742679L25.2765 6.38121L12.3479 1.32439C10.7197 0.711156 9.43022 0.726918 8.52589 1.3798C7.76711 2.00239 7.33538 2.93825 7.35385 3.91966C7.36173 4.16865 7.48709 4.39892 7.69199 4.54127L16.3977 10.5258L11.412 12.8852L3.05187 10.7615C2.7093 10.6773 2.35269 10.8317 2.17906 11.1391L0.0953026 14.8901C-0.0128134 15.0889 -0.0298066 15.3248 0.0487561 15.5371C0.126826 15.7496 0.292817 15.9178 0.50437 15.9991L6.69358 18.5552L5.36442 19.1682ZM8.96574 3.5266C9.01204 3.19413 9.18025 2.89145 9.43785 2.67719C9.88633 2.35457 10.7042 2.40185 11.7972 2.81067L23.3107 7.30131L18.0571 9.75497L8.96574 3.5266ZM1.88821 14.8825L3.25653 12.4525L11.3017 14.4498C11.4751 14.4936 11.658 14.4771 11.8211 14.403L37.9699 2.18956C39.0094 1.67681 40.1802 1.49013 41.3279 1.65465C42.1327 1.72878 42.8496 2.19326 43.2469 2.89712C43.9069 4.31297 42.6095 6.38121 40.4152 7.40351L31.3556 11.6506L31.9063 10.0222C32.0454 9.60326 31.8181 9.15061 31.3992 9.01171C30.9798 8.8728 30.5274 9.10012 30.3885 9.51904L23.916 28.7785C23.5306 29.8719 23.0509 30.5248 22.5162 30.6659C22.185 30.7297 21.8421 30.6647 21.5567 30.4854L23.1297 13.97C23.1708 13.5358 22.8524 13.1504 22.4177 13.1093C21.9835 13.0677 21.5981 13.3866 21.5567 13.8208L21.3131 16.3451L7.81759 22.6365L6.70934 20.2772L8.92658 19.2394C9.21202 19.1135 9.39599 18.8313 9.39599 18.5198C9.39599 18.208 9.21202 17.9257 8.92658 17.8001L1.88821 14.8825Z" fill="white"/>
</svg>
