<svg width="13" height="13" viewBox="0 0 13 13" fill="none" xmlns="http://www.w3.org/2000/svg">
<path d="M11.2482 0H1.75179C0.784322 0 0 0.784284 0 1.75178V11.2482C0 12.2157 0.78429 12.9999 1.75179 12.9999H6.43536L6.44335 8.35446H5.23644C5.0796 8.35446 4.9523 8.22764 4.95169 8.07079L4.94591 6.57337C4.9453 6.41566 5.07298 6.2875 5.23069 6.2875H6.4354V4.84061C6.4354 3.1615 7.4609 2.24721 8.95879 2.24721H10.1879C10.3452 2.24721 10.4727 2.3747 10.4727 2.53199V3.79463C10.4727 3.95186 10.3453 4.07931 10.1881 4.07941L9.43377 4.07976C8.61918 4.07976 8.46144 4.46685 8.46144 5.03491V6.28754H10.2514C10.4219 6.28754 10.5543 6.43646 10.5342 6.60583L10.3567 8.10326C10.3397 8.24656 10.2182 8.35453 10.0739 8.35453H8.46942L8.46144 13H11.2482C12.2157 13 13 12.2157 13 11.2483V1.75178C13 0.784284 12.2157 0 11.2482 0Z" fill="#F9C579"/>
</svg>
