<svg width="13" height="13" viewBox="0 0 13 13" fill="none" xmlns="http://www.w3.org/2000/svg">
<path d="M10.5795 0H2.42059C1.08588 0 0 1.08586 0 2.42056V10.5794C0 11.9141 1.08588 13 2.42059 13H10.5795C11.9141 13 13 11.9141 13 10.5794V2.42056C13 1.08586 11.9141 0 10.5795 0ZM6.5 9.32852C4.94033 9.32852 3.67148 8.05962 3.67148 6.5C3.67148 4.94038 4.94033 3.67148 6.5 3.67148C8.05967 3.67148 9.32852 4.94036 9.32852 6.5C9.32852 8.05964 8.05967 9.32852 6.5 9.32852ZM10.4407 3.09788C10.3699 3.16872 10.2719 3.20935 10.1716 3.20935C10.0713 3.20935 9.97301 3.16872 9.90217 3.09788C9.83133 3.02705 9.7907 2.92878 9.7907 2.82849C9.7907 2.72822 9.83133 2.63016 9.90217 2.55935C9.97301 2.48823 10.0713 2.44763 10.1716 2.44763C10.2716 2.44763 10.3699 2.48826 10.4407 2.55935C10.5118 2.63016 10.5524 2.7282 10.5524 2.82849C10.5524 2.92878 10.5118 3.02705 10.4407 3.09788Z" fill="#F9C579"/>
</svg>
